<svg width="26" height="27" viewBox="0 0 26 27" fill="none" xmlns="http://www.w3.org/2000/svg">
<path d="M19.1058 7.875H19.1183M9.75 24.75H16.25C21.6667 24.75 23.8333 22.5 23.8333 16.875V10.125C23.8333 4.5 21.6667 2.25 16.25 2.25H9.75C4.33333 2.25 2.16666 4.5 2.16666 10.125V16.875C2.16666 22.5 4.33333 24.75 9.75 24.75ZM16.7917 13.5C16.7917 15.6746 15.0941 17.4375 13 17.4375C10.9059 17.4375 9.20833 15.6746 9.20833 13.5C9.20833 11.3254 10.9059 9.5625 13 9.5625C15.0941 9.5625 16.7917 11.3254 16.7917 13.5Z" stroke="white" stroke-width="1.5" stroke-linecap="round" stroke-linejoin="round"/>
</svg>
