<svg width="43" height="42" viewBox="0 0 43 42" fill="none" xmlns="http://www.w3.org/2000/svg">
<path d="M14.3333 31.5L21.5 26.1625L28.6666 31.5L25.9791 22.8375L33.1458 17.85H24.3666L21.5 8.75L18.6333 17.85H9.85415L17.0208 22.8375L14.3333 31.5ZM21.5 38.5C19.0215 38.5 16.6923 38.0406 14.5125 37.1219C12.3326 36.2031 10.4364 34.9563 8.82394 33.3813C7.21144 31.8063 5.93488 29.9542 4.99425 27.825C4.05363 25.6958 3.58331 23.4208 3.58331 21C3.58331 18.5792 4.05363 16.3042 4.99425 14.175C5.93488 12.0458 7.21144 10.1937 8.82394 8.61875C10.4364 7.04375 12.3326 5.79688 14.5125 4.87813C16.6923 3.95937 19.0215 3.5 21.5 3.5C23.9785 3.5 26.3076 3.95937 28.4875 4.87813C30.6673 5.79688 32.5635 7.04375 34.176 8.61875C35.7885 10.1937 37.0651 12.0458 38.0057 14.175C38.9463 16.3042 39.4166 18.5792 39.4166 21C39.4166 23.4208 38.9463 25.6958 38.0057 27.825C37.0651 29.9542 35.7885 31.8063 34.176 33.3813C32.5635 34.9563 30.6673 36.2031 28.4875 37.1219C26.3076 38.0406 23.9785 38.5 21.5 38.5ZM21.5 35C25.5014 35 28.8906 33.6438 31.6677 30.9312C34.4448 28.2188 35.8333 24.9083 35.8333 21C35.8333 17.0917 34.4448 13.7813 31.6677 11.0688C28.8906 8.35625 25.5014 7 21.5 7C17.4986 7 14.1094 8.35625 11.3323 11.0688C8.55519 13.7813 7.16665 17.0917 7.16665 21C7.16665 24.9083 8.55519 28.2188 11.3323 30.9312C14.1094 33.6438 17.4986 35 21.5 35Z" fill="#FEF7FF"/>
</svg>
