<svg width="27" height="28" viewBox="0 0 27 28" fill="none" xmlns="http://www.w3.org/2000/svg">
<g clip-path="url(#clip0_134_344)">
<path d="M25.875 3.50001C24.7977 4.28807 23.6049 4.89081 22.3425 5.28501C21.665 4.47711 20.7645 3.90449 19.7629 3.64459C18.7613 3.3847 17.7069 3.45007 16.7423 3.83188C15.7777 4.21368 14.9495 4.89348 14.3696 5.77935C13.7897 6.66522 13.4862 7.7144 13.5 8.78501V9.95168C11.523 10.0048 9.56393 9.55013 7.79738 8.62803C6.03084 7.70594 4.51161 6.34509 3.375 4.66668C3.375 4.66668 -1.125 15.1667 9 19.8333C6.68309 21.4643 3.92305 22.2821 1.125 22.1667C11.25 28 23.625 22.1667 23.625 8.75001C23.624 8.42504 23.5938 8.10087 23.535 7.78168C24.6832 6.60742 25.4934 5.12484 25.875 3.50001Z" stroke="#F3F3F3" stroke-width="4" stroke-linecap="round" stroke-linejoin="round"/>
</g>
<defs>
<clipPath id="clip0_134_344">
<rect width="27" height="28" fill="white"/>
</clipPath>
</defs>
</svg>
